<svg width="30" height="30" viewBox="0 0 30 30" fill="none" xmlns="http://www.w3.org/2000/svg">
<path d="M21.2313 7.00059L7.00082 21.2311C6.53707 21.6949 6.53707 22.4467 7.00082 22.9105L7.08921 22.9989C7.55296 23.4626 8.30484 23.4626 8.76859 22.9989L22.9991 8.76836C23.4629 8.30461 23.4629 7.55272 22.9991 7.08898L22.9107 7.00059C22.447 6.53684 21.6951 6.53684 21.2313 7.00059Z" fill="currentColor"/>
<path d="M6.95835 8.63633L21.1889 22.8669C21.6526 23.3306 22.4045 23.3306 22.8683 22.8669L22.9566 22.7785C23.4204 22.3147 23.4204 21.5628 22.9566 21.0991L8.72612 6.86857C8.26237 6.40482 7.51048 6.40482 7.04674 6.86857L6.95835 6.95695C6.4946 7.4207 6.4946 8.17259 6.95835 8.63633Z" fill="currentColor"/>
</svg>
