<svg width="40" height="40" viewBox="0 0 40 40" fill="none" xmlns="http://www.w3.org/2000/svg">
<path d="M33.4167 18.333H6.58333C5.70888 18.333 5 19.0419 5 19.9163V20.083C5 20.9575 5.70888 21.6663 6.58333 21.6663H33.4167C34.2911 21.6663 35 20.9575 35 20.083V19.9163C35 19.0419 34.2911 18.333 33.4167 18.333Z" fill="currentColor"/>
<path d="M33.4167 26.667H6.58333C5.70888 26.667 5 27.3759 5 28.2503V28.417C5 29.2914 5.70888 30.0003 6.58333 30.0003H33.4167C34.2911 30.0003 35 29.2914 35 28.417V28.2503C35 27.3759 34.2911 26.667 33.4167 26.667Z" fill="currentColor"/>
<path d="M33.4167 10H6.58333C5.70888 10 5 10.7089 5 11.5833V11.75C5 12.6245 5.70888 13.3333 6.58333 13.3333H33.4167C34.2911 13.3333 35 12.6245 35 11.75V11.5833C35 10.7089 34.2911 10 33.4167 10Z" fill="currentColor"/>
</svg>
