<svg width="300" height="354" viewBox="0 0 300 354" fill="none" xmlns="http://www.w3.org/2000/svg">
<g clip-path="url(#clip0_2854_8888)">
<path d="M170.405 88.4932L88.6289 170.194V88.4932H170.405Z" fill="white" fill-opacity="0.05"/>
<path d="M177.23 0V81.7004L259.032 0H177.23Z" fill="white" fill-opacity="0.05"/>
<path d="M347.637 88.4932L265.836 170.194V88.4932H347.637Z" fill="white" fill-opacity="0.05"/>
<path d="M265.836 0V81.7004L347.635 0H265.836Z" fill="white" fill-opacity="0.05"/>
<path d="M177.232 265.504H259.03L177.232 347.205V265.504ZM265.837 265.504H347.635L265.837 347.205V265.504ZM436.24 177.011L354.461 258.689V177.011H347.635L265.837 258.689V177.011H259.03L88.6297 347.205V177.011H81.8011L0 258.689V265.504H81.8011L0 347.205V354H347.635L354.461 347.205L436.24 265.504L443.069 258.689L524.867 177.011H436.24Z" fill="white" fill-opacity="0.05"/>
<path d="M177.232 265.504H259.03L177.232 347.205V265.504ZM265.837 265.504H347.635L265.837 347.205V265.504ZM436.24 177.011L354.461 258.689V177.011H347.635L265.837 258.689V177.011H259.03L88.6297 347.205V177.011H81.8011L0 258.689V265.504H81.8011L0 347.205V354H347.635L354.461 347.205L436.24 265.504L443.069 258.689L524.867 177.011H436.24Z" fill="white" fill-opacity="0.05"/>
<path d="M347.637 88.4932L265.836 170.194V88.4932H347.637Z" fill="white" fill-opacity="0.05"/>
<path d="M265.836 0V81.7004L347.635 0H265.836Z" fill="white" fill-opacity="0.05"/>
<path d="M177.23 0V81.7004L259.032 0H177.23Z" fill="white" fill-opacity="0.05"/>
<path d="M170.405 88.4932L88.6289 170.194V88.4932H170.405Z" fill="white" fill-opacity="0.05"/>
</g>
<defs>
<clipPath id="clip0_2854_8888">
<rect width="638" height="354" fill="white"/>
</clipPath>
</defs>
</svg>
